<svg xmlns="http://www.w3.org/2000/svg" width="36" viewBox="0 0 36 36" height="36" version="1.0"><defs><clipPath id="a"><path d="M 0.488281 0 L 35.511719 0 L 35.511719 35.027344 L 0.488281 35.027344 Z M 0.488281 0"/></clipPath></defs><g clip-path="url(#a)"><path fill="#F28400" d="M 0.488281 17.511719 C 0.488281 7.84375 8.328125 0 18 0 C 27.671875 0 35.511719 7.84375 35.511719 17.511719 C 35.511719 27.183594 27.671875 35.027344 18 35.027344 C 8.328125 35.027344 0.488281 27.183594 0.488281 17.511719 Z M 0.488281 17.511719"/></g><path fill="#ECA448" d="M 24.445312 10.921875 C 24.445312 10.441406 24.058594 10.046875 23.570312 10.046875 L 20.195312 10.046875 C 19.714844 10.046875 19.320312 10.433594 19.320312 10.921875 L 19.320312 19.546875 L 24.4375 14.429688 L 24.4375 10.921875 Z M 24.445312 10.921875"/><path fill="#FFF" d="M 24.445312 24.105469 C 24.445312 24.585938 24.058594 24.980469 23.570312 24.980469 L 20.195312 24.980469 C 19.714844 24.980469 19.320312 24.59375 19.320312 24.105469 L 19.320312 10.921875 C 19.320312 10.441406 19.707031 10.046875 20.195312 10.046875 L 23.570312 10.046875 C 24.050781 10.046875 24.445312 10.433594 24.445312 10.921875 Z M 24.445312 24.105469"/><path fill="#FFF" d="M 16.671875 24.105469 C 16.671875 24.585938 16.285156 24.980469 15.796875 24.980469 L 12.421875 24.980469 C 11.941406 24.980469 11.546875 24.59375 11.546875 24.105469 L 11.546875 10.921875 C 11.546875 10.441406 11.9375 10.046875 12.421875 10.046875 L 15.796875 10.046875 C 16.277344 10.046875 16.671875 10.433594 16.671875 10.921875 Z M 16.671875 24.105469"/></svg>